<svg width="885" height="347" viewBox="0 0 885 347" fill="none" xmlns="http://www.w3.org/2000/svg">
<mask id="mask0_197_2589" style="mask-type:luminance" maskUnits="userSpaceOnUse" x="148" y="-1" width="92" height="114">
<path d="M148.625 112.423L239.915 90.4037V-0.29834L148.625 24.2208V112.423Z" fill="white"/>
</mask>
<g mask="url(#mask0_197_2589)">
<path d="M221.342 -37.0664L285.297 89.4794L167.198 149.191L103.221 22.6452L221.342 -37.0664Z" fill="url(#paint0_linear_197_2589)"/>
</g>
<mask id="mask1_197_2589" style="mask-type:luminance" maskUnits="userSpaceOnUse" x="47" y="28" width="86" height="109">
<path d="M132.153 116.394V28.6333L47.8797 51.2825V136.732L132.153 116.394Z" fill="white"/>
</mask>
<g mask="url(#mask1_197_2589)">
<path d="M115.008 -5.29858L175.686 114.734L65.0242 170.664L4.34613 50.6311L115.008 -5.29858Z" fill="url(#paint1_linear_197_2589)"/>
</g>
<mask id="mask2_197_2589" style="mask-type:luminance" maskUnits="userSpaceOnUse" x="47" y="133" width="86" height="108">
<path d="M132.153 133.328L47.8797 153.666V237.75V240.649L132.153 218.672V133.328Z" fill="white"/>
</mask>
<g mask="url(#mask2_197_2589)">
<path d="M115.008 99.3962L175.35 218.819L65.0244 274.581L4.6615 155.179L115.008 99.3962Z" fill="url(#paint2_linear_197_2589)"/>
</g>
<mask id="mask3_197_2589" style="mask-type:luminance" maskUnits="userSpaceOnUse" x="20" y="226" width="172" height="120">
<path d="M23.4448 263.488C12.7505 312.463 31.6808 334.692 31.6808 334.692C85.9928 347.046 191.36 344.987 191.36 344.987C161.315 283.658 176.127 226.866 176.127 226.866L23.4448 263.488Z" fill="white"/>
</mask>
<g mask="url(#mask3_197_2589)">
<path d="M157.47 156.839L238.465 324.229L46.6402 417.053L-34.355 249.663L157.47 156.839Z" fill="url(#paint3_linear_197_2589)"/>
</g>
<mask id="mask4_197_2589" style="mask-type:luminance" maskUnits="userSpaceOnUse" x="187" y="217" width="31" height="60">
<path d="M188.061 276.451H217.686C217.686 276.451 217.896 217.811 200.605 217.811C182.914 217.811 188.061 276.451 188.061 276.451Z" fill="white"/>
</mask>
<g mask="url(#mask4_197_2589)">
<path d="M211.257 204.091L240.902 265.337L189.553 290.171L159.928 228.926L211.257 204.091Z" fill="url(#paint4_linear_197_2589)"/>
</g>
<mask id="mask5_197_2589" style="mask-type:luminance" maskUnits="userSpaceOnUse" x="148" y="107" width="92" height="241">
<path d="M148.604 129.357V214.365L172.45 208.146L194.364 202.431C194.364 202.431 203.273 198.65 214.177 212.853C218.589 218.61 222.581 228.337 225.04 239.578C228.674 256.071 229.053 275.779 222.812 290.843H189.679C189.679 290.843 190.772 328.641 212.454 347.298C212.454 347.298 239.894 339.062 239.894 294.898V185.161V107.338L148.604 129.357Z" fill="white"/>
</mask>
<g mask="url(#mask5_197_2589)">
<path d="M222.602 71.5366L334 301.769L165.937 383.1L54.5189 152.847L222.602 71.5366Z" fill="url(#paint5_linear_197_2589)"/>
</g>
<mask id="mask6_197_2589" style="mask-type:luminance" maskUnits="userSpaceOnUse" x="-583" y="-835" width="2017" height="2017">
<path d="M1434 -835H-583V1182H1434V-835Z" fill="white"/>
</mask>
<g mask="url(#mask6_197_2589)">
<path d="M392.198 142.972C390.413 146.459 387.849 149.38 384.509 151.691C381.168 154.023 377.155 155.767 372.47 156.923C367.784 158.078 362.574 158.667 356.88 158.667H308.556V56.9131H355.724C366.167 56.9131 374.361 59.2872 380.328 64.0356C386.274 68.7839 389.257 75.1711 389.257 83.2181V83.5123C389.257 86.4117 388.9 88.996 388.165 91.2231C387.45 93.4502 386.484 95.4672 385.265 97.253C384.067 99.0389 382.66 100.615 381.084 101.98C379.487 103.346 377.785 104.502 375.957 105.468C381.84 107.695 386.463 110.721 389.845 114.545C393.228 118.369 394.909 123.684 394.909 130.471V130.765C394.867 135.408 393.984 139.484 392.198 142.972ZM367.112 87C367.112 83.6173 365.851 81.012 363.33 79.2261C360.809 77.4403 357.174 76.5368 352.426 76.5368H330.323V98.0515H350.955C355.892 98.0515 359.821 97.2111 362.721 95.5092C365.62 93.8074 367.091 91.076 367.091 87.2941V87H367.112ZM372.785 127.697C372.785 124.315 371.482 121.625 368.856 119.629C366.251 117.654 362.028 116.646 356.208 116.646H330.323V139.022H356.922C361.859 139.022 365.746 138.118 368.562 136.332C371.377 134.547 372.785 131.752 372.785 127.97V127.697Z" fill="#E40D2D"/>
</g>
<mask id="mask7_197_2589" style="mask-type:luminance" maskUnits="userSpaceOnUse" x="-583" y="-835" width="2017" height="2017">
<path d="M1434 -835H-583V1182H1434V-835Z" fill="white"/>
</mask>
<g mask="url(#mask7_197_2589)">
<path d="M429.828 79.016C426.782 81.2431 423.357 84.6889 419.575 89.3322L403.88 76.6839C406.401 73.2802 408.944 70.2547 411.507 67.6074C414.07 64.9811 416.844 62.754 419.785 60.9471C422.748 59.1402 426.004 57.7745 429.597 56.8501C433.19 55.9256 437.245 55.4634 441.804 55.4634C447.225 55.4634 452.099 56.2198 456.406 57.7115C460.713 59.2243 464.39 61.3463 467.458 64.0986C470.504 66.872 472.836 70.1917 474.433 74.0576C476.03 77.9445 476.828 82.2516 476.828 87C476.828 91.2651 476.261 95.068 475.148 98.4087C474.034 101.749 472.374 104.922 470.21 107.926C468.025 110.931 465.252 113.914 461.848 116.877C458.465 119.839 454.536 123.054 450.061 126.542L433.484 139.337H477.816V158.667H402.515V140.955L436.383 113.242C439.577 110.637 442.287 108.284 444.535 106.204C446.762 104.123 448.59 102.149 449.998 100.258C451.406 98.3667 452.414 96.5387 453.045 94.7528C453.675 92.9669 453.99 91.013 453.99 88.8699C453.99 84.5208 452.729 81.2221 450.208 78.995C447.687 76.7679 444.388 75.6544 440.333 75.6544C436.404 75.6544 432.875 76.7679 429.828 79.016Z" fill="#E40D2D"/>
</g>
<mask id="mask8_197_2589" style="mask-type:luminance" maskUnits="userSpaceOnUse" x="-583" y="-835" width="2017" height="2017">
<path d="M1434 -835H-583V1182H1434V-835Z" fill="white"/>
</mask>
<g mask="url(#mask8_197_2589)">
<path d="M576.061 142.972C574.275 146.459 571.712 149.38 568.371 151.691C565.03 154.023 561.017 155.767 556.332 156.923C551.647 158.078 546.436 158.667 540.742 158.667H492.418V56.9131H539.587C550.029 56.9131 558.223 59.2872 564.169 64.0356C570.115 68.7839 573.098 75.1711 573.098 83.2181V83.5123C573.098 86.4117 572.741 88.996 572.006 91.2231C571.291 93.4502 570.325 95.4672 569.106 97.253C567.909 99.0389 566.501 100.615 564.925 101.98C563.328 103.346 561.626 104.502 559.799 105.468C565.681 107.695 570.304 110.721 573.687 114.545C577.069 118.369 578.75 123.684 578.75 130.471V130.765C578.75 135.408 577.847 139.484 576.061 142.972ZM550.995 87C550.995 83.6173 549.735 81.012 547.213 79.2261C544.692 77.4403 541.057 76.5368 536.309 76.5368H514.206V98.0515H534.838C539.776 98.0515 543.705 97.2111 546.625 95.5092C549.525 93.8074 550.974 91.076 550.974 87.2941V87H550.995ZM556.647 127.697C556.647 124.315 555.344 121.625 552.718 119.629C550.113 117.654 545.89 116.646 540.07 116.646H514.185V139.022H540.784C545.722 139.022 549.609 138.118 552.403 136.332C555.218 134.547 556.626 131.752 556.626 127.97V127.697H556.647Z" fill="#E40D2D"/>
</g>
<mask id="mask9_197_2589" style="mask-type:luminance" maskUnits="userSpaceOnUse" x="-583" y="-835" width="2017" height="2017">
<path d="M1434 -835H-583V1182H1434V-835Z" fill="white"/>
</mask>
<g mask="url(#mask9_197_2589)">
<path d="M379.34 271.787C377.512 275.716 374.949 279.014 371.692 281.661C368.415 284.33 364.507 286.368 359.968 287.776C355.43 289.183 350.388 289.877 344.883 289.877C337.13 289.877 329.524 288.553 322.066 285.885C314.607 283.216 307.821 279.119 301.707 273.594L314.943 257.752C319.586 261.533 324.377 264.538 329.272 266.765C334.168 268.992 339.525 270.106 345.324 270.106C349.967 270.106 353.581 269.265 356.145 267.564C358.708 265.862 359.989 263.508 359.989 260.504V260.21C359.989 258.76 359.716 257.478 359.191 256.365C358.645 255.251 357.636 254.201 356.124 253.234C354.611 252.268 352.531 251.301 349.862 250.335C347.194 249.368 343.727 248.36 339.441 247.288C334.294 246.028 329.629 244.62 325.448 243.065C321.267 241.511 317.717 239.599 314.817 237.33C311.897 235.06 309.649 232.224 308.031 228.82C306.434 225.438 305.636 221.215 305.636 216.172V215.878C305.636 211.235 306.497 207.032 308.241 203.314C309.964 199.595 312.401 196.359 315.531 193.649C318.662 190.938 322.402 188.858 326.751 187.409C331.1 185.959 335.891 185.224 341.122 185.224C348.581 185.224 355.451 186.337 361.691 188.564C367.952 190.791 373.688 193.985 378.92 198.166L367.28 215.016C362.721 211.928 358.267 209.47 353.896 207.684C349.526 205.898 345.177 204.994 340.807 204.994C336.458 204.994 333.18 205.835 330.995 207.537C328.81 209.239 327.717 211.34 327.717 213.861V214.155C327.717 215.815 328.033 217.223 328.663 218.441C329.293 219.66 330.428 220.752 332.088 221.719C333.747 222.685 335.996 223.61 338.874 224.471C341.731 225.354 345.366 226.362 349.736 227.518C354.884 228.862 359.485 230.396 363.519 232.098C367.553 233.8 370.957 235.838 373.73 238.212C376.504 240.586 378.584 243.381 379.991 246.574C381.399 249.768 382.113 253.592 382.113 258.067V258.361C382.092 263.382 381.168 267.858 379.34 271.787Z" fill="#0C51AA"/>
</g>
<mask id="mask10_197_2589" style="mask-type:luminance" maskUnits="userSpaceOnUse" x="-583" y="-835" width="2017" height="2017">
<path d="M1434 -835H-583V1182H1434V-835Z" fill="white"/>
</mask>
<g mask="url(#mask10_197_2589)">
<path d="M459.411 288.427V247.583H418.125V288.427H395.749V186.673H418.125V226.95H459.411V186.673H481.808V288.427H459.411Z" fill="#0C51AA"/>
</g>
<mask id="mask11_197_2589" style="mask-type:luminance" maskUnits="userSpaceOnUse" x="-583" y="-835" width="2017" height="2017">
<path d="M1434 -835H-583V1182H1434V-835Z" fill="white"/>
</mask>
<g mask="url(#mask11_197_2589)">
<path d="M576.145 288.427L566.837 265.61H523.808L514.5 288.427H491.683L535.301 185.938H555.933L599.55 288.427H576.145ZM545.323 212.853L531.813 245.839H558.853L545.323 212.853Z" fill="#0C51AA"/>
</g>
<mask id="mask12_197_2589" style="mask-type:luminance" maskUnits="userSpaceOnUse" x="-583" y="-835" width="2017" height="2017">
<path d="M1434 -835H-583V1182H1434V-835Z" fill="white"/>
</mask>
<g mask="url(#mask12_197_2589)">
<path d="M699.266 257.625C696.639 263.824 692.942 269.202 688.151 273.761C683.361 278.321 677.625 281.893 671.007 284.519C664.367 287.124 657.077 288.448 649.135 288.448H609.446V186.694H649.135C657.077 186.694 664.367 187.976 671.007 190.539C677.646 193.102 683.361 196.674 688.151 201.213C692.942 205.772 696.66 211.129 699.266 217.285C701.871 223.442 703.195 230.102 703.195 237.266V237.561C703.195 244.725 701.871 251.427 699.266 257.625ZM679.789 237.561C679.789 233.106 679.033 228.988 677.541 225.206C676.049 221.425 673.948 218.189 671.301 215.458C668.633 212.747 665.418 210.646 661.636 209.133C657.854 207.642 653.694 206.885 649.135 206.885H631.843V268.236H649.135C653.694 268.236 657.854 267.5 661.636 266.051C665.418 264.601 668.633 262.521 671.301 259.79C673.969 257.079 676.049 253.886 677.541 250.188C679.054 246.511 679.789 242.393 679.789 237.834V237.561Z" fill="#0C51AA"/>
</g>
<mask id="mask13_197_2589" style="mask-type:luminance" maskUnits="userSpaceOnUse" x="-583" y="-835" width="2017" height="2017">
<path d="M1434 -835H-583V1182H1434V-835Z" fill="white"/>
</mask>
<g mask="url(#mask13_197_2589)">
<path d="M717.293 288.427V186.673H793.897V206.591H739.375V227.244H787.341V247.162H739.375V268.53H794.611V288.427H717.293Z" fill="#0C51AA"/>
</g>
<mask id="mask14_197_2589" style="mask-type:luminance" maskUnits="userSpaceOnUse" x="-583" y="-835" width="2017" height="2017">
<path d="M1434 -835H-583V1182H1434V-835Z" fill="white"/>
</mask>
<g mask="url(#mask14_197_2589)">
<path d="M879.661 271.787C877.833 275.716 875.27 279.014 872.013 281.661C868.736 284.33 864.828 286.368 860.29 287.776C855.751 289.183 850.73 289.877 845.204 289.877C837.451 289.877 829.846 288.553 822.387 285.885C814.928 283.216 808.142 279.119 802.028 273.594L815.264 257.752C819.908 261.533 824.677 264.538 829.593 266.765C834.489 268.992 839.846 270.106 845.645 270.106C850.289 270.106 853.902 269.265 856.466 267.564C859.029 265.862 860.311 263.508 860.311 260.504V260.21C860.311 258.76 860.037 257.478 859.512 256.365C858.966 255.251 857.957 254.201 856.445 253.234C854.932 252.268 852.852 251.301 850.184 250.335C847.515 249.368 844.048 248.36 839.762 247.288C834.615 246.028 829.951 244.62 825.769 243.065C821.588 241.511 818.038 239.599 815.138 237.33C812.218 235.06 809.97 232.224 808.352 228.82C806.755 225.438 805.957 221.215 805.957 216.172V215.878C805.957 211.235 806.818 207.032 808.562 203.314C810.285 199.595 812.722 196.359 815.852 193.649C818.983 190.938 822.723 188.858 827.072 187.409C831.421 185.959 836.212 185.224 841.443 185.224C848.902 185.224 855.751 186.337 862.012 188.564C868.274 190.791 874.009 193.985 879.241 198.166L867.601 215.016C863.042 211.928 858.588 209.47 854.239 207.684C849.868 205.898 845.519 204.994 841.149 204.994C836.779 204.994 833.522 205.835 831.337 207.537C829.152 209.239 828.06 211.34 828.06 213.861V214.155C828.06 215.815 828.375 217.223 829.005 218.441C829.635 219.66 830.77 220.752 832.43 221.719C834.09 222.685 836.338 223.61 839.216 224.471C842.073 225.354 845.708 226.362 850.079 227.518C855.226 228.862 859.827 230.396 863.861 232.098C867.895 233.8 871.299 235.838 874.051 238.212C876.825 240.586 878.905 243.381 880.312 246.574C881.72 249.768 882.434 253.592 882.434 258.067V258.361C882.413 263.382 881.489 267.858 879.661 271.787Z" fill="#0C51AA"/>
</g>
<defs>
<linearGradient id="paint0_linear_197_2589" x1="168.732" y1="5.715" x2="245.003" y2="156.611" gradientUnits="userSpaceOnUse">
<stop stop-color="#1771CD"/>
<stop offset="0.5408" stop-color="#03398F"/>
<stop offset="0.5663" stop-color="#0E58B2"/>
<stop offset="1" stop-color="#003085"/>
</linearGradient>
<linearGradient id="paint1_linear_197_2589" x1="74.9733" y1="53.1116" x2="151.244" y2="204.007" gradientUnits="userSpaceOnUse">
<stop stop-color="#1771CD"/>
<stop offset="0.5408" stop-color="#03398F"/>
<stop offset="0.5663" stop-color="#0E58B2"/>
<stop offset="1" stop-color="#003085"/>
</linearGradient>
<linearGradient id="paint2_linear_197_2589" x1="32.9854" y1="74.3354" x2="109.256" y2="225.231" gradientUnits="userSpaceOnUse">
<stop stop-color="#1771CD"/>
<stop offset="0.5408" stop-color="#03398F"/>
<stop offset="0.5663" stop-color="#0E58B2"/>
<stop offset="1" stop-color="#003085"/>
</linearGradient>
<linearGradient id="paint3_linear_197_2589" x1="80.2815" y1="241.998" x2="129.666" y2="344.059" gradientUnits="userSpaceOnUse">
<stop stop-color="#E40D2D"/>
<stop offset="0.4235" stop-color="#8F1E2B"/>
<stop offset="0.4439" stop-color="#BD152C"/>
<stop offset="1" stop-color="#7D212B"/>
</linearGradient>
<linearGradient id="paint4_linear_197_2589" x1="175.582" y1="195.885" x2="224.966" y2="297.945" gradientUnits="userSpaceOnUse">
<stop stop-color="#E40D2D"/>
<stop offset="0.4235" stop-color="#8F1E2B"/>
<stop offset="0.4439" stop-color="#BD152C"/>
<stop offset="1" stop-color="#7D212B"/>
</linearGradient>
<linearGradient id="paint5_linear_197_2589" x1="178.371" y1="194.532" x2="227.755" y2="296.593" gradientUnits="userSpaceOnUse">
<stop stop-color="#E40D2D"/>
<stop offset="0.4235" stop-color="#8F1E2B"/>
<stop offset="0.4439" stop-color="#BD152C"/>
<stop offset="1" stop-color="#7D212B"/>
</linearGradient>
</defs>
</svg>
