<svg width="13" height="11" viewBox="0 0 13 11" fill="none" xmlns="http://www.w3.org/2000/svg">
<g clip-path="url(#clip0_199_576)">
<path fill-rule="evenodd" clip-rule="evenodd" d="M0 0.625H18.525V1.3753H0V0.625ZM0 2.12559H18.525V2.87589H0V2.12559ZM0 3.62426H18.525V4.37645H0V3.62426ZM0 5.12485H18.525V5.87515H0V5.12485ZM0 6.62543H18.525V7.37574H0V6.62543ZM0 8.12411H18.525V8.87441H0V8.12411ZM0 9.6247H18.525V10.375H0V9.6247Z" fill="#BD3D44"/>
<path fill-rule="evenodd" clip-rule="evenodd" d="M0 1.375H18.525V2.12528H0V1.375ZM0 2.87557H18.525V3.62396H0V2.87557ZM0 4.37426H18.525V5.12455H0V4.37426ZM0 5.87485H18.525V6.62513H0V5.87485ZM0 7.37543H18.525V8.12572H0V7.37543ZM0 8.87411H18.525V9.62441H0V8.87411Z" fill="white"/>
<path fill-rule="evenodd" clip-rule="evenodd" d="M0 0.625H7.40961V5.87515H0V0.625Z" fill="#192F5D"/>
<path fill-rule="evenodd" clip-rule="evenodd" d="M0.617177 0.849609L0.685732 1.05714H0.902832L0.727616 1.18475L0.794282 1.39421L0.617177 1.26472L0.441982 1.3923L0.508627 1.18475L0.331543 1.05714H0.552441L0.617177 0.849609ZM1.85307 0.849609L1.91972 1.05714H2.13871L1.9616 1.18475L2.02827 1.39421L1.85307 1.26472L1.67597 1.3923L1.74261 1.18475L1.56742 1.05714H1.78452L1.85307 0.849609ZM3.08706 0.849609L3.15561 1.05716H3.3708L3.19561 1.18477L3.26223 1.39423L3.08515 1.26474L2.90995 1.39232L2.9766 1.18477L2.79949 1.05716H3.0185L3.08706 0.849609ZM4.32295 0.849609L4.38958 1.05716H4.60858L4.43148 1.18477L4.50003 1.39423L4.32293 1.26474L4.14584 1.39232L4.2144 1.18477L4.0373 1.05716H4.2544L4.32295 0.849609ZM5.55693 0.849609L5.62549 1.05716H5.84257L5.66737 1.18477L5.73402 1.39423L5.55691 1.26474L5.38172 1.39232L5.44838 1.18477L5.27319 1.05716H5.49027L5.55693 0.849609ZM6.79281 0.849609L6.85945 1.05716H7.07846L6.90136 1.18477L6.96991 1.39423L6.79281 1.26474L6.6157 1.39232L6.68426 1.18477L6.50717 1.05716H6.72616L6.79281 0.849609ZM1.23608 1.37515L1.30272 1.58275H1.52171L1.34461 1.71031L1.40937 1.9179L1.23797 1.7903L1.06088 1.91788L1.12371 1.71033L0.952334 1.58273H1.16943L1.23608 1.37515ZM2.47006 1.37515L2.53862 1.58275H2.7557L2.57859 1.71031L2.64717 1.9179L2.47004 1.7903L2.29296 1.91788L2.36151 1.71033L2.18441 1.58273H2.4034L2.47006 1.37515ZM3.70596 1.37515L3.77258 1.58275H3.99159L3.81449 1.71031L3.88113 1.9179L3.70594 1.7903L3.52885 1.91788L3.5955 1.71035L3.4203 1.58275H3.6374L3.70596 1.37515ZM4.93994 1.37515L5.0085 1.58275H5.22558L5.04847 1.71031L5.11703 1.9179L4.93992 1.7903L4.76473 1.91788L4.83139 1.71033L4.65429 1.58273H4.87519L4.93994 1.37515ZM6.17582 1.37515L6.24246 1.58275H6.46147L6.28437 1.71031L6.35101 1.9179L6.17582 1.7903L5.99871 1.91788L6.06538 1.71033L5.89018 1.58273H6.10726L6.17582 1.37515ZM0.617177 1.89889L0.685732 2.11026H0.902832L0.727616 2.23785L0.794282 2.44542L0.617177 2.31593L0.441982 2.44542L0.508627 2.23594L0.331543 2.10837H0.552441L0.617177 1.89889ZM1.85307 1.89889L1.91972 2.10831H2.13871L1.9616 2.2359L2.02827 2.44349L1.85307 2.31398L1.67597 2.44347L1.74261 2.23401L1.56742 2.10642H1.78452L1.85307 1.89889ZM3.08706 1.89889L3.15561 2.10835H3.3708L3.19561 2.23594L3.26223 2.44353L3.08515 2.31402L2.90995 2.44351L2.9766 2.23405L2.79949 2.10647H3.0185L3.08706 1.89889ZM4.32295 1.89889L4.38958 2.10835H4.60858L4.43148 2.23594L4.50003 2.44353L4.32293 2.31402L4.14584 2.44351L4.2144 2.23405L4.0373 2.10647H4.2544L4.32295 1.89889ZM5.55693 1.89889L5.62549 2.10835H5.84257L5.66737 2.23592L5.73402 2.44351L5.55691 2.314L5.38172 2.44349L5.44838 2.23403L5.27319 2.10645H5.49027L5.55693 1.89889ZM6.79281 1.89889L6.85945 2.10835H7.07846L6.90136 2.23594L6.96991 2.44353L6.79281 2.31402L6.6157 2.44351L6.68426 2.23405L6.50717 2.10647H6.72616L6.79281 1.89889ZM1.23608 2.42446L1.30272 2.63203H1.52171L1.34461 2.75959L1.41127 2.96908L1.23608 2.83958L1.05897 2.96717L1.12562 2.75961L0.950424 2.63203H1.16754L1.23608 2.42446ZM2.47006 2.42446L2.53862 2.63203H2.7557L2.57859 2.75959L2.64717 2.96908L2.47004 2.83958L2.29296 2.96717L2.36151 2.75961L2.18441 2.63203H2.4034L2.47006 2.42446ZM3.70596 2.42446L3.77258 2.63203H3.99159L3.81449 2.75959L3.88113 2.96908L3.70594 2.83958L3.52885 2.96717L3.5955 2.75961L3.4203 2.63203H3.6374L3.70596 2.42446ZM4.93994 2.42446L5.0085 2.63203H5.22558L5.05038 2.75959L5.11703 2.96908L4.93992 2.83958L4.76473 2.96717L4.83139 2.75961L4.65429 2.63203H4.87519L4.93994 2.42446ZM6.17582 2.42446L6.24246 2.63203H6.46147L6.28437 2.75959L6.35101 2.96908L6.17582 2.83958L5.99871 2.96717L6.06538 2.75961L5.89018 2.63203H6.10726L6.17582 2.42446ZM0.617177 2.95004L0.685732 3.15762H0.902832L0.727616 3.28518L0.794282 3.49466L0.617177 3.36517L0.441982 3.49275L0.508627 3.2852L0.331543 3.15762H0.552441L0.617177 2.95004ZM1.85307 2.95004L1.91972 3.15762H2.13871L1.9616 3.28518L2.02827 3.49277L1.85307 3.36517L1.67597 3.49275L1.74261 3.2852L1.56742 3.15762H1.78452L1.85307 2.95004ZM3.08706 2.95004L3.15561 3.15762H3.3708L3.19561 3.28518L3.26223 3.49466L3.08515 3.36517L2.90995 3.49275L2.9766 3.2852L2.79949 3.15762H3.0185L3.08706 2.95004ZM4.32295 2.95004L4.38958 3.15762H4.60858L4.43148 3.28518L4.50003 3.49466L4.32293 3.36517L4.14584 3.49275L4.2144 3.2852L4.0373 3.15762H4.2544L4.32295 2.95004ZM5.55693 2.95004L5.62549 3.15762H5.84257L5.66737 3.28518L5.73402 3.49466L5.55691 3.36517L5.38172 3.49275L5.44838 3.2852L5.27319 3.15762H5.49027L5.55693 2.95004ZM6.79281 2.95004L6.85945 3.15762H7.07846L6.90136 3.28518L6.96991 3.49466L6.79281 3.36517L6.6157 3.49275L6.68426 3.2852L6.50717 3.15762H6.72616L6.79281 2.95004ZM1.23608 3.47563L1.30272 3.6832H1.52171L1.34461 3.81077L1.41127 4.01836L1.23608 3.88887L1.05897 4.01836L1.12562 3.80888L0.950424 3.68129H1.16754L1.23608 3.47563ZM2.47006 3.47563L2.53862 3.6832H2.7557L2.57859 3.81077L2.64717 4.01836L2.47004 3.88887L2.29296 4.01836L2.36151 3.80888L2.18441 3.68129H2.4034L2.47006 3.47563ZM3.70596 3.47563L3.77258 3.6832H3.99159L3.81449 3.81077L3.88113 4.01836L3.70594 3.88887L3.52885 4.01836L3.5955 3.80888L3.4203 3.68129H3.6374L3.70596 3.47563ZM4.93994 3.47563L5.0085 3.6832H5.22558L5.05038 3.81077L5.11703 4.01836L4.93992 3.88887L4.76473 4.01836L4.83139 3.80888L4.65429 3.68129H4.87519L4.93994 3.47563ZM6.17582 3.47563L6.24246 3.6832H6.46147L6.28437 3.81077L6.35101 4.01836L6.17582 3.88887L5.99871 4.01836L6.06538 3.80888L5.89018 3.68129H6.10726L6.17582 3.47563ZM0.617177 3.99931L0.685732 4.20879H0.902832L0.727616 4.33635L0.794282 4.54204L0.617177 4.41445L0.441982 4.54202L0.508627 4.33446L0.331543 4.20688H0.552441L0.617177 3.99931ZM1.85307 3.99931L1.91972 4.20879H2.13871L1.9616 4.33635L2.03018 4.54204L1.85305 4.41445L1.67597 4.54202L1.74452 4.33446L1.56742 4.20688H1.78452L1.85307 3.99931ZM3.08706 3.99931L3.15561 4.20879H3.3708L3.19561 4.33635L3.26223 4.54204L3.08515 4.41445L2.90995 4.54202L2.9766 4.33446L2.79949 4.20688H3.0185L3.08706 3.99931ZM4.32295 3.99931L4.38958 4.20879H4.60858L4.43148 4.33635L4.50003 4.54204L4.32293 4.41445L4.14584 4.54202L4.2144 4.33446L4.0373 4.20688H4.2544L4.32295 3.99931ZM5.55693 3.99931L5.62549 4.20879H5.84257L5.66737 4.33635L5.73402 4.54204L5.55691 4.41445L5.38172 4.54202L5.44838 4.33446L5.27319 4.20688H5.49027L5.55693 3.99931ZM6.79281 3.99931L6.85945 4.20879H7.07846L6.90136 4.33635L6.96991 4.54204L6.79281 4.41445L6.6157 4.54202L6.68426 4.33446L6.50717 4.20688H6.72616L6.79281 3.99931ZM1.23608 4.52489L1.30272 4.73247H1.52171L1.34461 4.86005L1.41127 5.06953L1.23608 4.94004L1.05897 5.0676L1.12562 4.86005L0.950424 4.73247H1.16754L1.23608 4.52489ZM2.47006 4.52489L2.53862 4.73247H2.7557L2.57859 4.86005L2.64717 5.06953L2.47004 4.94004L2.29296 5.0676L2.36151 4.86005L2.18441 4.73247H2.4034L2.47006 4.52489ZM3.70596 4.52489L3.77258 4.73247H3.99159L3.81449 4.86005L3.88113 5.06953L3.70594 4.94004L3.52885 5.0676L3.5955 4.86005L3.4203 4.73247H3.6374L3.70596 4.52489ZM4.93994 4.52489L5.0085 4.73247H5.22558L5.05038 4.86005L5.11703 5.06953L4.93992 4.94004L4.76473 5.0676L4.83139 4.86005L4.65429 4.73247H4.87519L4.93994 4.52489ZM6.17582 4.52489L6.24246 4.73247H6.46147L6.28437 4.86005L6.35101 5.06953L6.17582 4.94004L5.99871 5.0676L6.06538 4.86005L5.89018 4.73247H6.10726L6.17582 4.52489ZM0.617177 5.05048L0.685732 5.25805H0.902832L0.727616 5.38563L0.794282 5.59321L0.617177 5.46562L0.441982 5.59319L0.508627 5.38372L0.331543 5.25614H0.552441L0.617177 5.05048ZM1.85307 5.05048L1.91972 5.25805H2.13871L1.9616 5.38563L2.03018 5.59321L1.85305 5.46562L1.67597 5.59319L1.74452 5.38372L1.56742 5.25614H1.78452L1.85307 5.05048ZM3.08706 5.05048L3.15561 5.25805H3.3708L3.1994 5.38563L3.26605 5.59321L3.08894 5.46562L2.91375 5.59319L2.98042 5.38372L2.80331 5.25614H3.0223L3.08706 5.05048ZM4.32295 5.05048L4.38958 5.25805H4.60858L4.43148 5.38563L4.50003 5.59321L4.32293 5.46562L4.14584 5.59319L4.2144 5.38372L4.0373 5.25614H4.2544L4.32295 5.05048ZM5.55693 5.05048L5.62549 5.25805H5.84257L5.66737 5.38563L5.73402 5.59321L5.55691 5.46562L5.38172 5.59319L5.44838 5.38372L5.27319 5.25614H5.49027L5.55693 5.05048ZM6.79281 5.05048L6.85945 5.25805H7.07846L6.90136 5.38563L6.96991 5.59321L6.79281 5.46562L6.6157 5.59319L6.68426 5.38372L6.50717 5.25614H6.72616L6.79281 5.05048Z" fill="white"/>
</g>
<defs>
<clipPath id="clip0_199_576">
<rect width="13" height="9.75" fill="white" transform="translate(0 0.625)"/>
</clipPath>
</defs>
</svg>
