<?xml version="1.0" standalone="no"?>
<!DOCTYPE svg PUBLIC "-//W3C//DTD SVG 20010904//EN"
 "http://www.w3.org/TR/2001/REC-SVG-20010904/DTD/svg10.dtd">
<svg version="1.0" xmlns="http://www.w3.org/2000/svg"
 width="213.000000pt" height="213.000000pt" viewBox="0 0 213.000000 213.000000"
 preserveAspectRatio="xMidYMid meet">
<metadata>
Created by potrace 1.14, written by Peter Selinger 2001-2017
</metadata>
<g transform="translate(0.000000,213.000000) scale(0.100000,-0.100000)"
fill="#000000" stroke="none">
<path d="M1443 2056 c-144 -39 -265 -75 -270 -79 -9 -10 -11 -513 -2 -528 5
-9 399 79 514 115 l40 13 0 273 c0 174 -4 274 -10 276 -5 1 -128 -30 -272 -70z"/>
<path d="M1029 1946 c-2 -3 -56 -18 -119 -34 -221 -58 -355 -95 -360 -99 -6
-6 -7 -523 0 -523 3 0 120 27 260 61 l255 62 0 268 c0 239 -2 269 -16 269 -9
0 -18 -2 -20 -4z"/>
<path d="M1475 1409 c-132 -32 -256 -63 -275 -68 l-35 -10 0 -260 c0 -255 0
-260 20 -257 11 2 79 20 151 39 115 30 135 33 161 22 85 -36 139 -154 150
-325 6 -101 -9 -209 -30 -211 -7 -1 -52 -2 -102 -2 l-90 -2 1 -47 c2 -65 37
-174 76 -233 44 -67 73 -71 127 -18 21 21 46 52 55 70 40 80 43 124 44 751 0
331 -3 604 -7 605 -3 2 -114 -22 -246 -54z"/>
<path d="M900 1269 c-80 -20 -191 -48 -247 -60 -57 -13 -104 -28 -104 -33 -6
-47 -3 -519 3 -522 4 -3 87 16 185 42 98 25 185 48 193 50 66 15 124 35 129
43 3 5 5 116 5 248 -2 280 -2 273 -11 272 -5 -1 -73 -19 -153 -40z"/>
<path d="M1464 780 c-32 -13 -55 -92 -58 -208 -6 -156 -11 -148 96 -147 l90 0
-6 85 c-10 149 -32 231 -70 262 -24 20 -23 20 -52 8z"/>
<path d="M1309 726 c-2 -3 -16 -7 -29 -9 -14 -3 -45 -10 -70 -17 -25 -7 -54
-14 -65 -15 -11 -2 -65 -15 -120 -28 -55 -14 -217 -52 -360 -87 -143 -34 -263
-64 -267 -66 -3 -2 -9 -21 -13 -42 -30 -179 14 -384 87 -403 15 -4 51 -10 81
-13 30 -4 63 -8 73 -10 130 -24 794 -46 794 -26 0 6 -11 37 -25 69 -30 73 -61
194 -73 286 -10 79 -9 245 3 318 6 41 0 59 -16 43z"/>
</g>
</svg>
